<svg xmlns="http://www.w3.org/2000/svg" width="0" height="0" style="position:absolute" aria-hidden="true">
<!-- Nexara icon sprite. Use: <svg><use href="/static/img/icons.svg#i-name"/></svg>. Colors follow currentColor. -->
<symbol id="i-mark" viewBox="0 0 64 64"><g><path d="M58 25V17L32 3L6 17V47L32 61L58 47V39" fill="none" stroke="currentColor" stroke-width="7"/><rect x="42" y="29" width="22" height="6" fill="currentColor"/><path d="M32 23L41 32L32 41L23 32Z" fill="currentColor"/></g></symbol>
<symbol id="i-reboot" viewBox="0 0 14 14"><g fill="none" stroke="currentColor" stroke-width="1.8"><path d="M12 7a5 5 0 1 1-1.5-3.6M12 1.5v3h-3"/></g></symbol>
<symbol id="i-power" viewBox="0 0 14 14"><g fill="none" stroke="currentColor" stroke-width="1.8"><path d="M7 1v6M4 3.2a5 5 0 1 0 6 0"/></g></symbol>
<symbol id="i-info" viewBox="0 0 14 14"><g fill="none" stroke="currentColor" stroke-width="1.3"><circle cx="7" cy="7" r="5.8"/><path d="M7 6.3v3.7M7 4v.4"/></g></symbol>
<symbol id="i-arrow-right" viewBox="0 0 16 12"><g fill="none" stroke="currentColor" stroke-width="1.6"><path d="M1 6h13M9 1l5 5-5 5"/></g></symbol>
<symbol id="i-arrow-up" viewBox="0 0 12 12"><g fill="none" stroke="currentColor" stroke-width="2"><path d="M6 11V2M2 5.5 6 1.5l4 4"/></g></symbol>
<symbol id="i-plus" viewBox="0 0 12 12"><g fill="none" stroke="currentColor" stroke-width="2"><path d="M6 1v10M1 6h10"/></g></symbol>
<symbol id="i-close" viewBox="0 0 12 12"><g fill="none" stroke="currentColor" stroke-width="1.8"><path d="M2 2l8 8M10 2l-8 8"/></g></symbol>
<symbol id="i-check" viewBox="0 0 12 12"><g fill="none" stroke="currentColor" stroke-width="1.8"><path d="M1.5 6.5 4.5 9.5 10.5 2.5"/></g></symbol>
<symbol id="i-thermometer" viewBox="0 0 14 14"><g fill="none" stroke="currentColor" stroke-width="1.6"><path d="M5.5 8.5V2a1.5 1.5 0 0 1 3 0v6.5a3 3 0 1 1-3 0z"/></g></symbol>
<symbol id="i-list" viewBox="0 0 14 14"><g fill="currentColor"><path d="M1 1h12v2H1zM1 5h12v2H1zM1 9h12v2H1zM1 12.5h12v1.5H1z"/></g></symbol>
<symbol id="i-package" viewBox="0 0 18 18"><g fill="none" stroke="currentColor" stroke-width="1.6"><path d="M9 1.5 16 5v8l-7 3.5L2 13V5z"/><path d="M2 5l7 3.5L16 5M9 8.5v8"/></g></symbol>
<symbol id="i-terminal" viewBox="0 0 18 18"><g fill="none" stroke="currentColor" stroke-width="1.6"><rect x="1.5" y="2.5" width="15" height="13"/><path d="M4.5 7l3 2.5-3 2.5M9.5 12h4"/></g></symbol>
<symbol id="i-warning" viewBox="0 0 18 18"><g fill="none" stroke="currentColor" stroke-width="1.6"><path d="M9 2 17 16H1z"/><path d="M9 7v4M9 13v.5"/></g></symbol>
<symbol id="i-dots" viewBox="0 0 18 18"><g fill="currentColor"><rect x="2" y="8" width="3" height="3"/><rect x="7.5" y="8" width="3" height="3"/><rect x="13" y="8" width="3" height="3"/></g></symbol>
<symbol id="i-eye" viewBox="0 0 18 14"><g fill="none" stroke="currentColor" stroke-width="1.5"><path d="M1 7s3-5.5 8-5.5S17 7 17 7s-3 5.5-8 5.5S1 7 1 7z"/><rect x="7" y="5" width="4" height="4"/></g></symbol>
<symbol id="i-sign-out" viewBox="0 0 14 14"><g fill="none" stroke="currentColor" stroke-width="1.6"><path d="M5.5 1.5H2v11h3.5M5 7h7.5M9.5 4L12.5 7l-3 3"/></g></symbol>
<symbol id="i-lock" viewBox="0 0 14 14"><g fill="none" stroke="currentColor" stroke-width="1.6"><rect x="2.5" y="6" width="9" height="6.5"/><path d="M4.5 6V4a2.5 2.5 0 0 1 5 0v2"/></g></symbol>
<symbol id="i-overview" viewBox="0 0 18 18"><g fill="none" stroke="currentColor" stroke-width="1.6"><rect x="1.5" y="1.5" width="6" height="6"/><rect x="10.5" y="1.5" width="6" height="6"/><rect x="1.5" y="10.5" width="6" height="6"/><rect x="10.5" y="10.5" width="6" height="6"/></g></symbol>
<symbol id="i-copy" viewBox="0 0 14 14"><g fill="none" stroke="currentColor" stroke-width="1.5"><rect x="4.5" y="4.5" width="8" height="8"/><path d="M9.5 4.5V1.5h-8v8h3"/></g></symbol>
<symbol id="i-circle" viewBox="0 0 18 18"><g fill="none" stroke="currentColor" stroke-width="2"><circle cx="9" cy="9" r="7"/></g></symbol>
<symbol id="i-database" viewBox="0 0 12 12"><g fill="none" stroke="currentColor" stroke-width="1.6"><ellipse cx="6" cy="3" rx="4.5" ry="1.8"/><path d="M1.5 3v6c0 1 2 1.8 4.5 1.8s4.5-.8 4.5-1.8V3"/></g></symbol>
</svg>
